<?xml version="1.0" encoding="utf-8"?>
<!-- Generator: Adobe Illustrator 15.1.0, SVG Export Plug-In . SVG Version: 6.00 Build 0)  -->
<!DOCTYPE svg PUBLIC "-//W3C//DTD SVG 1.1//EN" "http://www.w3.org/Graphics/SVG/1.1/DTD/svg11.dtd">
<svg version="1.1" id="Layer_1" xmlns="http://www.w3.org/2000/svg" xmlns:xlink="http://www.w3.org/1999/xlink" x="0px" y="0px"
	 width="110px" height="110px" viewBox="0 0 110 110" enable-background="new 0 0 110 110" xml:space="preserve">
<g>
	<g>
		<path fill="#E6C944" d="M68.293,54.993L59.865,55l-0.004,30.858H48.295V55H40.58V44.367l7.715-0.007l-0.014-6.262
			c0-8.679,2.354-13.957,12.568-13.957h8.512v10.64h-5.322c-3.979,0-4.174,1.485-4.174,4.256l-0.012,5.323h9.566L68.293,54.993z
			 M55,3.569C26.597,3.569,3.568,26.597,3.568,55c0,28.403,23.028,51.431,51.432,51.431c28.402,0,51.432-23.027,51.432-51.431
			C106.432,26.591,83.402,3.569,55,3.569"/>
	</g>
</g>
</svg>
