<?xml version="1.0" encoding="utf-8"?>
<!-- Generator: Adobe Illustrator 15.1.0, SVG Export Plug-In . SVG Version: 6.00 Build 0)  -->
<!DOCTYPE svg PUBLIC "-//W3C//DTD SVG 1.1//EN" "http://www.w3.org/Graphics/SVG/1.1/DTD/svg11.dtd">
<svg version="1.1" id="Layer_1" xmlns="http://www.w3.org/2000/svg" xmlns:xlink="http://www.w3.org/1999/xlink" x="0px" y="0px"
	 width="110px" height="110px" viewBox="0 0 110 110" enable-background="new 0 0 110 110" xml:space="preserve">
<g>
	<path fill="#E6C944" d="M55,106.43c28.404,0,51.43-23.025,51.43-51.43S83.404,3.57,55,3.57S3.57,26.596,3.57,55
		S26.596,106.43,55,106.43"/>
	<path fill="#FFFFFF" d="M43.77,33.911c2.176-3.571,5.516-5.421,10.018-5.554c4.615,0.133,8.035,1.931,10.264,5.396
		c2.225,3.464,3.338,7.629,3.338,12.493c0,4.867-1.113,9.004-3.338,12.415c-2.229,3.625-5.648,5.475-10.264,5.555
		c-4.357-0.08-7.676-1.879-9.947-5.395c-2.297-3.412-3.445-7.603-3.445-12.575C40.395,41.594,41.52,37.48,43.77,33.911
		 M53.787,66.873c6.344-0.053,10.855-3.227,13.531-9.52h0.141v9.598c0,0.717-0.047,1.824-0.141,3.332
		c-0.189,1.561-0.699,3.24-1.527,5.037c-0.828,1.693-2.168,3.135-4.014,4.324c-1.824,1.295-4.369,1.969-7.639,2.023
		c-3.148,0-5.811-0.82-7.99-2.461c-2.229-1.611-3.529-4.23-3.908-7.852h-2.77c0.285,4.705,1.787,8.064,4.51,10.074
		c2.65,1.93,6.016,2.895,10.088,2.895c4.025,0,7.162-0.752,9.412-2.26c2.227-1.455,3.824-3.268,4.795-5.434
		c0.973-2.168,1.553-4.232,1.74-6.189c0.145-1.957,0.213-3.357,0.213-4.203V26.651h-2.77v8.728h-0.141
		c-1.066-3.199-2.83-5.62-5.295-7.26c-2.484-1.613-5.232-2.42-8.238-2.42c-5.236,0.106-9.213,2.129-11.936,6.069
		c-2.795,3.913-4.189,8.74-4.189,14.478c0,5.898,1.324,10.775,3.975,14.637C44.314,64.824,48.361,66.82,53.787,66.873"/>
	<path fill="none" stroke="#FFFFFF" stroke-width="2.327" d="M43.77,33.911c2.176-3.571,5.516-5.421,10.018-5.554
		c4.615,0.133,8.035,1.931,10.264,5.396c2.225,3.464,3.338,7.629,3.338,12.493c0,4.867-1.113,9.004-3.338,12.415
		c-2.229,3.625-5.648,5.475-10.264,5.555c-4.357-0.08-7.676-1.879-9.947-5.395c-2.297-3.412-3.445-7.603-3.445-12.575
		C40.395,41.594,41.52,37.48,43.77,33.911z M53.787,66.873c6.344-0.053,10.855-3.227,13.531-9.52h0.141v9.598
		c0,0.717-0.047,1.824-0.141,3.332c-0.189,1.561-0.699,3.24-1.527,5.037c-0.828,1.693-2.168,3.135-4.014,4.324
		c-1.824,1.295-4.369,1.969-7.639,2.023c-3.148,0-5.811-0.82-7.99-2.461c-2.229-1.611-3.529-4.23-3.908-7.852h-2.77
		c0.285,4.705,1.787,8.064,4.51,10.074c2.65,1.93,6.016,2.895,10.088,2.895c4.025,0,7.162-0.752,9.412-2.26
		c2.227-1.455,3.824-3.268,4.795-5.434c0.973-2.168,1.553-4.232,1.74-6.189c0.145-1.957,0.213-3.357,0.213-4.203V26.651h-2.77v8.728
		h-0.141c-1.066-3.199-2.83-5.62-5.295-7.26c-2.484-1.613-5.232-2.42-8.238-2.42c-5.236,0.106-9.213,2.129-11.936,6.069
		c-2.795,3.913-4.189,8.74-4.189,14.478c0,5.898,1.324,10.775,3.975,14.637C44.314,64.824,48.361,66.82,53.787,66.873z"/>
</g>
</svg>
