<?xml version="1.0" encoding="utf-8"?>
<!-- Generator: Adobe Illustrator 15.1.0, SVG Export Plug-In . SVG Version: 6.00 Build 0)  -->
<!DOCTYPE svg PUBLIC "-//W3C//DTD SVG 1.1//EN" "http://www.w3.org/Graphics/SVG/1.1/DTD/svg11.dtd">
<svg version="1.1" id="Layer_1" xmlns="http://www.w3.org/2000/svg" xmlns:xlink="http://www.w3.org/1999/xlink" x="0px" y="0px"
	 width="110px" height="110px" viewBox="0 0 110 110" enable-background="new 0 0 110 110" xml:space="preserve">
<path fill="#E6C944" d="M61.235,47.354v-1.528c-1.914,0-3.822,0.127-5.467,0.507c-3.031,0.891-5.441,2.795-5.441,6.852
	c0,3.173,1.648,5.337,4.434,5.337c0.393,0,0.764-0.129,1.008-0.129c1.648-0.383,3.172-1.529,4.07-3.308
	C61.337,52.549,61.235,50.275,61.235,47.354 M89.042,73.113c-0.066,2.49-1.379,7.238-4.465,9.871
	c-0.643,0.479-1.254,0.207-0.986-0.5c0.912-2.191,2.977-7.312,2-8.465c-0.672-0.9-3.506-0.84-5.918-0.639
	c-1.082,0.16-2.061,0.232-2.807,0.361c-0.709,0.08-0.842-0.562-0.133-1.035c0.871-0.621,1.846-1.092,2.938-1.465
	c3.928-1.16,8.465-0.471,9.098,0.299c0.135,0.213,0.273,0.617,0.273,1.15V73.113z M74.151,60.275
	c-1.396,1.297-4.061,3.562-5.58,4.838c-0.496,0.389-1.137,0.389-1.783,0.133c-2.404-2.051-2.764-2.916-4.16-4.838
	c-2.426,2.564-4.438,3.955-6.859,4.705c-1.512,0.385-3.16,0.648-5.191,0.648c-6.08,0-10.895-3.824-10.895-11.298
	c0-5.975,3.176-10.037,7.861-11.935c2.4-1.146,5.32-1.659,8.225-2.031c1.9-0.258,3.818-0.39,5.467-0.52l-0.004-1.001
	c0-1.775,0.104-3.807-0.898-5.331c-0.875-1.272-2.537-1.899-4.043-1.899h-0.521c-2.529,0.246-4.797,1.647-5.441,4.436
	c-0.121,0.63-0.504,1.266-1.262,1.391l-7.096-0.888c-0.504-0.122-1.262-0.505-1.006-1.518c1.531-7.997,8.357-10.786,14.826-11.174
	h1.525c3.545,0,8.109,1.021,11.006,3.691c3.564,3.281,3.174,7.727,3.174,12.558v11.429c0,3.422,1.391,4.93,2.785,6.721
	C74.675,59.008,74.798,59.781,74.151,60.275 M22.056,72.088c9.568,5.586,21.406,8.969,33.668,8.969
	c7.713,0,16.045-1.449,23.941-4.561c0.549-0.213,1.193-0.48,1.734-0.682c1.24-0.541,2.332,0.826,1.104,1.721
	c-0.904,0.686-1.844,1.33-2.838,1.865c-7.23,4.338-16.564,6.605-24.699,6.605c-13.09,0-24.791-4.809-33.66-12.893
	C20.538,72.494,21.157,71.607,22.056,72.088 M106.431,55c0-28.404-23.027-51.43-51.432-51.43S3.569,26.596,3.569,55
	s23.025,51.43,51.43,51.43S106.431,83.404,106.431,55"/>
</svg>
