<?xml version="1.0" encoding="utf-8"?>
<!-- Generator: Adobe Illustrator 15.1.0, SVG Export Plug-In . SVG Version: 6.00 Build 0)  -->
<!DOCTYPE svg PUBLIC "-//W3C//DTD SVG 1.1//EN" "http://www.w3.org/Graphics/SVG/1.1/DTD/svg11.dtd">
<svg version="1.1" id="Layer_1" xmlns="http://www.w3.org/2000/svg" xmlns:xlink="http://www.w3.org/1999/xlink" x="0px" y="0px"
	 width="110px" height="110px" viewBox="0 0 110 110" enable-background="new 0 0 110 110" xml:space="preserve">
<path fill="#E6C944" d="M65.298,54.999c0-2.242-0.732-4.311-1.945-6c-1.871-2.596-4.912-4.295-8.348-4.295
	c-3.438,0-6.477,1.697-8.352,4.292c-1.219,1.69-1.943,3.759-1.945,6.001c-0.006,5.679,4.613,10.298,10.291,10.298
	C60.675,65.295,65.298,60.678,65.298,54.999 M67.599,42.438l9.885-0.035v-8.63v-1.285l-1.291,0.004l-8.627,0.028L67.599,42.438z
	 M78.548,72.947V48.999h-8.736c0.758,1.851,1.188,3.878,1.188,6c0,8.819-7.176,15.999-15.998,15.999s-15.996-7.18-15.996-15.999
	c0-2.122,0.422-4.149,1.174-6h-8.73v23.948c0,3.094,2.514,5.602,5.605,5.602H72.94C76.03,78.549,78.548,76.041,78.548,72.947
	 M84.251,72.947c0,6.236-5.072,11.307-11.307,11.307H37.056c-6.234,0-11.305-5.07-11.305-11.307V48.999V37.057
	c0-6.235,5.07-11.306,11.305-11.306h35.887c6.236,0,11.309,5.07,11.309,11.306v11.942V72.947z M106.431,54.999
	c0-28.357-23.068-51.431-51.43-51.431c-28.357,0-51.432,23.073-51.432,51.431c0,28.358,23.074,51.433,51.432,51.433
	S106.431,83.357,106.431,54.999"/>
</svg>
