<?xml version="1.0" encoding="utf-8"?>
<!-- Generator: Adobe Illustrator 15.1.0, SVG Export Plug-In . SVG Version: 6.00 Build 0)  -->
<!DOCTYPE svg PUBLIC "-//W3C//DTD SVG 1.1//EN" "http://www.w3.org/Graphics/SVG/1.1/DTD/svg11.dtd">
<svg version="1.1" id="Layer_1" xmlns="http://www.w3.org/2000/svg" xmlns:xlink="http://www.w3.org/1999/xlink" x="0px" y="0px"
	 width="110px" height="110px" viewBox="0 0 110 110" enable-background="new 0 0 110 110" xml:space="preserve">
<path fill="#E6C944" d="M77.944,43.23c0.021,0.509,0.033,1.022,0.033,1.535c0,15.644-11.904,33.677-33.682,33.677
	c-6.684,0-12.908-1.955-18.145-5.314c0.926,0.109,1.867,0.164,2.824,0.164c5.547,0,10.648-1.893,14.701-5.066
	c-5.18-0.096-9.553-3.518-11.059-8.223c0.721,0.139,1.465,0.213,2.225,0.213c1.078,0,2.127-0.139,3.121-0.41
	c-5.416-1.086-9.496-5.869-9.496-11.609c0-0.048,0-0.101,0.002-0.147c1.596,0.885,3.42,1.419,5.361,1.479
	c-3.176-2.12-5.266-5.745-5.266-9.85c0-2.174,0.584-4.206,1.602-5.954c5.836,7.164,14.562,11.873,24.398,12.371
	c-0.203-0.868-0.307-1.771-0.307-2.699c0-6.536,5.301-11.839,11.836-11.839c3.406,0,6.479,1.438,8.643,3.738
	c2.699-0.529,5.225-1.513,7.52-2.875c-0.891,2.769-2.762,5.084-5.215,6.552c2.398-0.285,4.688-0.919,6.801-1.861
	C82.265,39.479,80.257,41.564,77.944,43.23 M54.999,3.569C26.642,3.569,3.569,26.643,3.569,55c0,28.358,23.072,51.431,51.43,51.431
	c28.359,0,51.432-23.072,51.432-51.431C106.431,26.643,83.36,3.569,54.999,3.569"/>
</svg>
